#!OML:ASF G:\JayActor3\Patient Classification 1\Patient 1\Session 6\male.ASF
:FULLY-SPECIFIED
:DEGREES
1084
root 19.742 15.8833 -8.81191 16.1123 -56.2132 -4.38841
lowerback 21.4171 -1.98889 3.70762
upperback 15.7516 -2.90754 0.0697714
thorax 5.21994 -1.52164 -1.56517
lowerneck 6.41789 0.772037 4.74738
upperneck -9.50109 1.42387 -0.889559
head -4.24628 0.558837 -1.2269
rclavicle -2.26615e-014 -4.23411e-014
rhumerus -8.60443 18.5777 -89.3844
rradius 86.4071
rwrist 13.3156
rhand -27.8127 -6.61888
rfingers 7.12502
rthumb -1.20498 -36.5952
lclavicle -2.26615e-014 -4.23411e-014
lhumerus -10.969 -11.1749 86.4993
lradius 82.5672
lwrist 3.24729
lhand -26.9709 8.78048
lfingers 7.12502
lthumb -0.391957 38.7599
rfemur -48.0814 -1.77954 26.9546
rtibia 41.2402
rfoot -9.23547 -11.9638
rtoes 7.70057
lfemur -45.3212 9.18437 -17.6306
ltibia 71.0059
lfoot -13.3121 1.05794
ltoes -12.4374
1085
root 19.6935 15.865 -8.80041 16.2208 -56.1261 -4.39795
lowerback 21.4508 -1.99867 3.72393
upperback 15.7618 -2.91635 0.0772417
thorax 5.21485 -1.52505 -1.56375
lowerneck 6.40012 0.765135 4.75132
upperneck -9.52383 1.41728 -0.856003
head -4.25124 0.553187 -1.21589
rclavicle 1.47101e-014 5.96354e-015
rhumerus -8.49561 18.4958 -89.3172
rradius 86.408
rwrist 13.3024
rhand -27.7963 -6.62189
rfingers 7.12502
rthumb -1.18914 -36.5983
lclavicle 1.47101e-014 5.96354e-015
lhumerus -10.8454 -11.0394 86.4982
lradius 82.5966
lwrist 3.22406
lhand -27.0509 8.61573
lfingers 7.12502
lthumb -0.469201 38.595
rfemur -48.3527 -1.89316 27.0835
rtibia 41.8518
rfoot -9.78594 -11.8251
rtoes 7.57634
lfemur -45.9651 9.11378 -17.8105
ltibia 69.8557
lfoot -14.4451 0.741592
ltoes -13.2009
1086
root 19.6462 15.847 -8.788 16.33 -56.0404 -4.41267
lowerback 21.4841 -2.01118 3.74016
upperback 15.7708 -2.9286 0.0860318
thorax 5.20843 -1.5303 -1.56027
lowerneck 6.39262 0.760201 4.7605
upperneck -9.54427 1.41355 -0.831982
head -4.25731 0.549311 -1.20931
rclavicle -5.04913e-014 5.06901e-014
rhumerus -8.39786 18.4237 -89.2586
rradius 86.4117
rwrist 13.2851
rhand -27.7881 -6.62339
rfingers 7.12502
rthumb -1.18127 -36.5999
lclavicle -5.04913e-014 5.06901e-014
lhumerus -10.7368 -10.9072 86.4986
lradius 82.6162
lwrist 3.20545
lhand -27.1313 8.43499
lfingers 7.12502
lthumb -0.546878 38.414
rfemur -48.6059 -2.00582 27.2111
rtibia 42.4357
rfoot -10.3333 -11.6988
rtoes 7.42321
lfemur -46.5586 9.052 -17.9949
ltibia 68.6169
lfoot -15.4748 0.483333
ltoes -13.6951
1087
root 19.6001 15.8295 -8.77482 16.4377 -55.9617 -4.43193
lowerback 21.5169 -2.02029 3.75718
upperback 15.7794 -2.93655 0.0994956
thorax 5.20233 -1.53366 -1.55293
lowerneck 6.38754 0.753781 4.7595
upperneck -9.56 1.40686 -0.808559
head -4.26227 0.544488 -1.20093
rclavicle 7.55382e-015 -4.94974e-014
rhumerus -8.3121 18.3521 -89.1972
rradius 86.4193
rwrist 13.2637
rhand -27.8044 -6.61747
rfingers 7.12502
rthumb -1.19704 -36.5939
lclavicle 7.55382e-015 -4.94974e-014
lhumerus -10.6395 -10.7889 86.5112
lradius 82.6251
lwrist 3.18395
lhand -27.212 8.25667
lfingers 7.12502
lthumb -0.624814 38.2355
rfemur -48.8375 -2.10794 27.3333
rtibia 42.9898
rfoot -10.865 -11.5859
rtoes 7.17653
lfemur -47.0976 8.99616 -18.1786
ltibia 67.3028
lfoot -16.3938 0.258329
ltoes -13.9527
1088
root 19.5552 15.8127 -8.76097 16.5338 -55.8882 -4.4495
lowerback 21.5554 -2.02973 3.7677
upperback 15.7874 -2.94575 0.112683
thorax 5.1928 -1.53832 -1.54179
lowerneck 6.38892 0.750069 4.76229
upperneck -9.569 1.40403 -0.790712
head -4.26596 0.541876 -1.19534
rclavicle 3.57812e-015 -1.68967e-014
rhumerus -8.23812 18.2901 -89.1457
rradius 86.4277
rwrist 13.25
rhand -27.8282 -6.60739
rfingers 7.12502
rthumb -1.21995 -36.5836
lclavicle 3.57812e-015 -1.68967e-014
lhumerus -10.5586 -10.6782 86.5237
lradius 82.6296
lwrist 3.16166
lhand -27.2904 8.08765
lfingers 7.12502
lthumb -0.700584 38.0662
rfemur -49.0406 -2.19569 27.4426
rtibia 43.515
rfoot -11.3897 -11.4813
rtoes 6.86636
lfemur -47.5736 8.93483 -18.3574
ltibia 65.9249
lfoot -17.1984 0.034639
ltoes -14.1123
1089
root 19.5114 15.7964 -8.74644 16.6202 -55.8257 -4.46666
lowerback 21.5994 -2.03841 3.76848
upperback 15.7947 -2.9554 0.126605
thorax 5.18011 -1.54423 -1.5241
lowerneck 6.39409 0.750803 4.76216
upperneck -9.56885 1.40671 -0.776894
head -4.26692 0.54252 -1.19084
rclavicle 8.18993e-014 -8.50798e-014
rhumerus -8.17473 18.2466 -89.0982
rradius 86.4343
rwrist 13.2463
rhand -27.8657 -6.59483
rfingers 7.12502
rthumb -1.25622 -36.5709
lclavicle 8.18993e-014 -8.50798e-014
lhumerus -10.494 -10.5655 86.5403
lradius 82.6316
lwrist 3.13785
lhand -27.3612 7.93412
lfingers 7.12502
lthumb -0.76899 37.9125
rfemur -49.2187 -2.26243 27.5366
rtibia 44.0151
rfoot -11.9153 -11.376
rtoes 6.5728
lfemur -47.9856 8.86172 -18.5259
ltibia 64.4972
lfoot -17.8823 -0.218938
ltoes -14.2338
1090
root 19.4687 15.7804 -8.73126 16.6948 -55.7776 -4.48144
lowerback 21.6497 -2.04394 3.7629
upperback 15.8027 -2.96207 0.139599
thorax 5.16529 -1.5493 -1.50412
lowerneck 6.3936 0.754462 4.75647
upperneck -9.55674 1.4124 -0.76314
head -4.26231 0.545116 -1.18532
rclavicle 4.33351e-014 -1.01579e-013
rhumerus -8.11973 18.2105 -89.0555
rradius 86.4406
rwrist 13.2566
rhand -27.9064 -6.57878
rfingers 7.12502
rthumb -1.29553 -36.5546
lclavicle 4.33351e-014 -1.01579e-013
lhumerus -10.4425 -10.4591 86.561
lradius 82.6341
lwrist 3.115
lhand -27.4287 7.80623
lfingers 7.12502
lthumb -0.834134 37.7843
rfemur -49.3749 -2.30799 27.6143
rtibia 44.4944
rfoot -12.4378 -11.2657
rtoes 6.32504
lfemur -48.3345 8.77685 -18.6854
ltibia 63.0383
lfoot -18.4408 -0.488478
ltoes -14.4469
1091
root 19.4272 15.7648 -8.71538 16.7616 -55.7467 -4.49909
lowerback 21.7061 -2.04282 3.75909
upperback 15.8111 -2.96014 0.15375
thorax 5.14852 -1.55019 -1.48514
lowerneck 6.38671 0.756947 4.74063
upperneck -9.535 1.41512 -0.748684
head -4.25304 0.546795 -1.17739
rclavicle 3.33958e-014 -6.36111e-014
rhumerus -8.07671 18.1693 -89.0107
rradius 86.4514
rwrist 13.2839
rhand -27.9381 -6.57158
rfingers 7.12502
rthumb -1.32616 -36.5472
lclavicle 3.33958e-014 -6.36111e-014
lhumerus -10.4016 -10.3672 86.593
lradius 82.6363
lwrist 3.09541
lhand -27.4846 7.69006
lfingers 7.12502
lthumb -0.888167 37.668
rfemur -49.5105 -2.33057 27.6785
rtibia 44.9558
rfoot -12.9535 -11.1503
rtoes 6.15972
lfemur -48.6198 8.68553 -18.8321
ltibia 61.573
lfoot -18.8698 -0.755687
ltoes -14.7531
1092
root 19.3867 15.7497 -8.69883 16.8208 -55.7372 -4.51951
lowerback 21.7655 -2.03576 3.75314
upperback 15.8207 -2.9513 0.166257
thorax 5.13197 -1.54788 -1.46787
lowerneck 6.37244 0.761343 4.71847
upperneck -9.50256 1.41909 -0.736433
head -4.23839 0.549667 -1.16892
rclavicle -6.99722e-014 5.32743e-014
rhumerus -8.0417 18.1309 -88.9691
rradius 86.4625
rwrist 13.3188
rhand -27.9567 -6.5673
rfingers 7.12502
rthumb -1.34407 -36.5428
lclavicle -6.99722e-014 5.32743e-014
lhumerus -10.3744 -10.282 86.6293
lradius 82.6423
lwrist 3.08423
lhand -27.5311 7.58599
lfingers 7.12502
lthumb -0.933065 37.5637
rfemur -49.6266 -2.33106 27.7312
rtibia 45.3989
rfoot -13.4627 -11.0291
rtoes 6.09558
lfemur -48.8464 8.60571 -18.9702
ltibia 60.1316
lfoot -19.1692 -0.992584
ltoes -15.1566
